<svg width="66" height="66" viewBox="0 0 66 66" fill="none" xmlns="http://www.w3.org/2000/svg">
<path d="M50.5286 34.7498C51.633 34.734 52.5156 33.8259 52.4998 32.7214C52.484 31.617 51.5759 30.7344 50.4714 30.7502L50.5286 34.7498ZM14.0657 31.8561C13.2959 32.6483 13.314 33.9145 14.1061 34.6843L27.0146 47.2291C27.8067 47.9989 29.0729 47.9808 29.8427 47.1887C30.6125 46.3966 30.5944 45.1304 29.8023 44.3605L18.3281 33.2096L29.4791 21.7354C30.2489 20.9433 30.2308 19.6771 29.4387 18.9073C28.6466 18.1375 27.3804 18.1556 26.6105 18.9477L14.0657 31.8561ZM50.4714 30.7502L15.4714 31.2502L15.5286 35.2498L50.5286 34.7498L50.4714 30.7502Z" fill="white"/>
</svg>
