<svg width="39" height="39" viewBox="0 0 39 39" fill="none" xmlns="http://www.w3.org/2000/svg">
<path d="M1.97143 21.2498C0.866975 21.234 -0.0155739 20.3259 0.000204086 19.2214C0.015982 18.117 0.924112 17.2344 2.02857 17.2502L1.97143 21.2498ZM38.4343 18.3561C39.2041 19.1483 39.186 20.4145 38.3939 21.1843L25.4854 33.7291C24.6933 34.4989 23.4271 34.4808 22.6573 33.6887C21.8875 32.8966 21.9056 31.6304 22.6977 30.8605L34.1719 19.7096L23.0209 8.23544C22.2511 7.44331 22.2692 6.17711 23.0613 5.4073C23.8534 4.63749 25.1196 4.65557 25.8895 5.4477L38.4343 18.3561ZM2.02857 17.2502L37.0286 17.7502L36.9714 21.7498L1.97143 21.2498L2.02857 17.2502Z" fill="#282828"/>
</svg>
