<svg xmlns="http://www.w3.org/2000/svg" xmlns:xlink="http://www.w3.org/1999/xlink" width="500" zoomAndPan="magnify" viewBox="0 0 375 374.999991" height="500" preserveAspectRatio="xMidYMid meet" version="1.0"><defs><clipPath id="c94e8af91b"><path d="M 0 0.0820312 L 375 0.0820312 L 375 375 L 0 375 Z M 0 0.0820312 " clip-rule="nonzero"/></clipPath></defs><g clip-path="url(#c94e8af91b)"><path fill="#ffffff" d="M 345.734375 216.867188 L 375.019531 187.582031 L 345.734375 158.296875 C 342.109375 154.679688 338.210938 151.386719 334.035156 148.421875 C 336.597656 145.613281 339.019531 142.691406 341.308594 139.65625 C 343.597656 136.621094 345.742188 133.488281 347.742188 130.253906 C 349.738281 127.019531 351.585938 123.703125 353.277344 120.296875 C 354.96875 116.894531 356.5 113.417969 357.867188 109.875 C 359.238281 106.328125 360.441406 102.726562 361.476562 99.070312 C 362.515625 95.410156 363.378906 91.714844 364.074219 87.976562 C 364.765625 84.238281 365.289062 80.480469 365.632812 76.695312 C 365.980469 72.90625 366.148438 69.113281 366.144531 65.3125 L 366.144531 9.625 L 310.433594 9.625 C 306.625 9.617188 302.828125 9.789062 299.035156 10.136719 C 295.242188 10.484375 291.476562 11.003906 287.734375 11.699219 C 283.992188 12.398438 280.289062 13.265625 276.625 14.304688 C 272.960938 15.34375 269.355469 16.550781 265.804688 17.925781 C 262.253906 19.300781 258.777344 20.835938 255.367188 22.535156 C 251.960938 24.230469 248.636719 26.082031 245.402344 28.085938 C 242.164062 30.09375 239.027344 32.242188 235.992188 34.539062 C 232.953125 36.835938 230.03125 39.265625 227.21875 41.835938 C 224.128906 37.382812 220.671875 33.234375 216.847656 29.390625 L 187.5 0.0625 L 158.214844 29.347656 C 154.390625 33.191406 150.933594 37.339844 147.84375 41.792969 C 145.027344 39.226562 142.101562 36.792969 139.0625 34.5 C 136.023438 32.203125 132.882812 30.054688 129.644531 28.046875 C 126.40625 26.042969 123.078125 24.195312 119.667969 22.5 C 116.257812 20.804688 112.777344 19.269531 109.222656 17.894531 C 105.667969 16.523438 102.0625 15.316406 98.394531 14.28125 C 94.730469 13.242188 91.023438 12.378906 87.28125 11.683594 C 83.535156 10.988281 79.765625 10.46875 75.972656 10.125 C 72.175781 9.78125 68.375 9.613281 64.566406 9.625 L 8.855469 9.625 L 8.855469 65.3125 C 8.851562 69.113281 9.019531 72.90625 9.367188 76.695312 C 9.710938 80.480469 10.234375 84.238281 10.925781 87.976562 C 11.621094 91.714844 12.484375 95.410156 13.523438 99.070312 C 14.558594 102.726562 15.761719 106.328125 17.132812 109.875 C 18.5 113.417969 20.03125 116.894531 21.722656 120.296875 C 23.414062 123.703125 25.261719 127.019531 27.257812 130.253906 C 29.257812 133.488281 31.402344 136.621094 33.691406 139.65625 C 35.980469 142.691406 38.402344 145.613281 40.964844 148.421875 C 36.789062 151.386719 32.890625 154.679688 29.265625 158.296875 L -0.0195312 187.582031 L 29.265625 216.867188 C 32.890625 220.484375 36.789062 223.777344 40.964844 226.742188 C 38.402344 229.554688 35.972656 232.480469 33.683594 235.519531 C 31.390625 238.558594 29.246094 241.695312 27.246094 244.933594 C 25.246094 248.171875 23.398438 251.492188 21.707031 254.902344 C 20.015625 258.308594 18.484375 261.789062 17.113281 265.339844 C 15.742188 268.890625 14.539062 272.496094 13.503906 276.160156 C 12.46875 279.820312 11.605469 283.523438 10.914062 287.265625 C 10.21875 291.007812 9.703125 294.773438 9.359375 298.5625 C 9.015625 302.351562 8.847656 306.148438 8.855469 309.957031 L 8.855469 365.542969 L 64.566406 365.542969 C 68.375 365.546875 72.171875 365.375 75.964844 365.027344 C 79.757812 364.683594 83.523438 364.160156 87.265625 363.464844 C 91.007812 362.769531 94.710938 361.898438 98.375 360.859375 C 102.039062 359.820312 105.644531 358.613281 109.195312 357.238281 C 112.746094 355.863281 116.222656 354.328125 119.632812 352.632812 C 123.039062 350.933594 126.363281 349.082031 129.597656 347.078125 C 132.835938 345.074219 135.972656 342.921875 139.007812 340.625 C 142.046875 338.328125 144.96875 335.898438 147.78125 333.332031 C 150.871094 337.78125 154.328125 341.929688 158.152344 345.773438 L 187.5 375.101562 L 216.785156 345.816406 C 220.609375 341.972656 224.066406 337.824219 227.15625 333.371094 C 229.96875 335.941406 232.890625 338.371094 235.929688 340.667969 C 238.964844 342.964844 242.101562 345.113281 245.339844 347.121094 C 248.574219 349.125 251.898438 350.976562 255.304688 352.671875 C 258.714844 354.371094 262.191406 355.90625 265.742188 357.28125 C 269.292969 358.65625 272.902344 359.863281 276.5625 360.902344 C 280.226562 361.941406 283.929688 362.808594 287.671875 363.503906 C 291.414062 364.203125 295.179688 364.722656 298.972656 365.070312 C 302.765625 365.417969 306.5625 365.589844 310.371094 365.582031 L 366.082031 365.582031 L 366.082031 309.957031 C 366.085938 306.152344 365.917969 302.359375 365.570312 298.574219 C 365.226562 294.789062 364.707031 291.027344 364.011719 287.292969 C 363.316406 283.554688 362.453125 279.855469 361.414062 276.199219 C 360.378906 272.542969 359.175781 268.941406 357.804688 265.394531 C 356.4375 261.851562 354.90625 258.375 353.214844 254.972656 C 351.523438 251.566406 349.675781 248.246094 347.679688 245.015625 C 345.679688 241.78125 343.535156 238.648438 341.246094 235.613281 C 338.957031 232.578125 336.535156 229.65625 333.972656 226.84375 C 338.175781 223.851562 342.09375 220.523438 345.734375 216.867188 Z M 353.140625 187.582031 L 334.761719 205.917969 C 331.066406 209.621094 327.035156 212.910156 322.671875 215.789062 C 318.300781 212.050781 313.6875 208.636719 308.839844 205.542969 C 303.988281 202.449219 298.945312 199.710938 293.710938 197.328125 C 288.476562 194.941406 283.101562 192.933594 277.585938 191.300781 C 272.070312 189.667969 266.46875 188.429688 260.777344 187.582031 C 266.472656 186.738281 272.078125 185.5 277.597656 183.871094 C 283.117188 182.238281 288.496094 180.230469 293.734375 177.84375 C 298.972656 175.457031 304.015625 172.71875 308.871094 169.625 C 313.722656 166.53125 318.335938 163.117188 322.710938 159.375 C 327.0625 162.257812 331.078125 165.546875 334.761719 169.246094 Z M 223.796875 306.574219 C 220.324219 301.945312 217.246094 297.066406 214.5625 291.9375 C 211.878906 286.808594 209.625 281.5 207.796875 276.007812 C 205.972656 270.515625 204.597656 264.910156 203.679688 259.199219 C 202.757812 253.484375 202.300781 247.734375 202.308594 241.945312 L 202.308594 223.277344 L 205.835938 226.824219 C 207.101562 228.097656 208.324219 229.414062 209.5 230.773438 C 210.675781 232.132812 211.804688 233.53125 212.878906 234.972656 C 213.957031 236.410156 214.984375 237.882812 215.957031 239.394531 C 216.929688 240.90625 217.851562 242.449219 218.714844 244.023438 C 219.582031 245.597656 220.390625 247.203125 221.144531 248.835938 C 221.898438 250.464844 222.589844 252.121094 223.226562 253.804688 C 223.863281 255.484375 224.441406 257.183594 224.957031 258.90625 C 225.472656 260.628906 225.929688 262.367188 226.324219 264.117188 C 226.71875 265.871094 227.050781 267.636719 227.324219 269.414062 C 227.59375 271.191406 227.800781 272.976562 227.949219 274.765625 C 228.09375 276.558594 228.175781 278.351562 228.195312 280.148438 C 228.214844 281.945312 228.171875 283.742188 228.0625 285.535156 C 227.957031 287.328125 227.789062 289.117188 227.554688 290.898438 C 227.324219 292.683594 227.027344 294.453125 226.671875 296.214844 C 226.3125 297.976562 225.894531 299.722656 225.417969 301.457031 C 224.9375 303.1875 224.398438 304.902344 223.796875 306.59375 Z M 146.785156 280.917969 C 146.777344 278.414062 146.894531 275.914062 147.132812 273.421875 C 147.375 270.929688 147.734375 268.453125 148.21875 265.996094 C 148.703125 263.539062 149.308594 261.113281 150.035156 258.714844 C 150.757812 256.320312 151.601562 253.964844 152.558594 251.648438 C 153.515625 249.335938 154.585938 247.074219 155.769531 244.867188 C 156.949219 242.660156 158.238281 240.515625 159.632812 238.433594 C 161.027344 236.355469 162.519531 234.347656 164.113281 232.414062 C 165.703125 230.480469 167.390625 228.632812 169.164062 226.867188 L 172.691406 223.320312 L 172.691406 241.988281 C 172.695312 247.769531 172.238281 253.519531 171.316406 259.226562 C 170.394531 264.9375 169.019531 270.539062 167.195312 276.027344 C 165.367188 281.515625 163.113281 286.820312 160.433594 291.945312 C 157.75 297.070312 154.671875 301.945312 151.203125 306.574219 C 148.253906 298.277344 146.78125 289.722656 146.785156 280.917969 Z M 151.203125 68.589844 C 154.675781 73.222656 157.753906 78.101562 160.4375 83.226562 C 163.121094 88.355469 165.375 93.667969 167.203125 99.160156 C 169.027344 104.652344 170.402344 110.253906 171.320312 115.96875 C 172.242188 121.679688 172.699219 127.433594 172.691406 133.21875 L 172.691406 151.886719 L 169.164062 148.339844 C 167.898438 147.066406 166.675781 145.75 165.5 144.390625 C 164.324219 143.03125 163.199219 141.632812 162.121094 140.195312 C 161.042969 138.757812 160.019531 137.285156 159.046875 135.773438 C 158.074219 134.261719 157.152344 132.71875 156.289062 131.144531 C 155.421875 129.570312 154.613281 127.96875 153.863281 126.335938 C 153.109375 124.703125 152.414062 123.050781 151.777344 121.367188 C 151.140625 119.6875 150.566406 117.988281 150.046875 116.265625 C 149.53125 114.546875 149.078125 112.808594 148.679688 111.054688 C 148.285156 109.304688 147.953125 107.539062 147.683594 105.761719 C 147.414062 103.984375 147.203125 102.203125 147.058594 100.410156 C 146.914062 98.621094 146.832031 96.828125 146.8125 95.03125 C 146.789062 93.234375 146.835938 91.4375 146.941406 89.644531 C 147.046875 87.851562 147.214844 86.0625 147.449219 84.28125 C 147.679688 82.5 147.976562 80.730469 148.332031 78.96875 C 148.6875 77.207031 149.105469 75.460938 149.585938 73.730469 C 150.0625 71.996094 150.601562 70.285156 151.203125 68.589844 Z M 228.214844 94.246094 C 228.222656 96.75 228.105469 99.25 227.867188 101.742188 C 227.625 104.234375 227.265625 106.710938 226.78125 109.167969 C 226.296875 111.625 225.691406 114.050781 224.964844 116.449219 C 224.242188 118.847656 223.398438 121.203125 222.441406 123.515625 C 221.484375 125.828125 220.414062 128.089844 219.230469 130.296875 C 218.050781 132.507812 216.761719 134.652344 215.367188 136.730469 C 213.972656 138.8125 212.480469 140.816406 210.886719 142.75 C 209.292969 144.683594 207.609375 146.53125 205.835938 148.300781 L 202.308594 151.84375 L 202.308594 133.179688 C 202.304688 127.394531 202.761719 121.648438 203.683594 115.9375 C 204.605469 110.226562 205.980469 104.628906 207.804688 99.136719 C 209.632812 93.648438 211.886719 88.34375 214.566406 83.21875 C 217.25 78.09375 220.328125 73.21875 223.796875 68.589844 C 226.746094 76.886719 228.21875 85.441406 228.214844 94.246094 Z M 222.511719 173.394531 L 226.660156 169.246094 C 227.949219 167.960938 229.28125 166.71875 230.660156 165.523438 C 232.039062 164.332031 233.457031 163.191406 234.917969 162.097656 C 236.375 161.003906 237.871094 159.96875 239.40625 158.984375 C 240.941406 157.996094 242.507812 157.070312 244.105469 156.195312 C 245.707031 155.324219 247.335938 154.507812 248.996094 153.75 C 250.652344 152.996094 252.335938 152.296875 254.042969 151.660156 C 255.753906 151.023438 257.480469 150.449219 259.230469 149.9375 C 260.980469 149.425781 262.746094 148.976562 264.527344 148.589844 C 266.308594 148.203125 268.097656 147.878906 269.902344 147.621094 C 271.707031 147.359375 273.519531 147.167969 275.335938 147.039062 C 277.15625 146.90625 278.976562 146.84375 280.796875 146.84375 C 282.621094 146.84375 284.441406 146.910156 286.261719 147.042969 C 288.078125 147.171875 289.890625 147.367188 291.691406 147.628906 C 293.496094 147.886719 295.289062 148.210938 297.070312 148.597656 C 298.851562 148.988281 300.617188 149.4375 302.367188 149.953125 C 304.113281 150.464844 305.84375 151.042969 307.550781 151.679688 C 302.902344 155.195312 298 158.308594 292.847656 161.027344 C 287.691406 163.746094 282.351562 166.03125 276.828125 167.882812 C 271.304688 169.734375 265.664062 171.125 259.914062 172.0625 C 254.164062 172.996094 248.375 173.460938 242.546875 173.457031 Z M 132.472656 173.394531 C 126.648438 173.398438 120.859375 172.933594 115.105469 172 C 109.355469 171.0625 103.71875 169.671875 98.191406 167.820312 C 92.667969 165.96875 87.328125 163.683594 82.175781 160.964844 C 77.019531 158.246094 72.117188 155.132812 67.472656 151.617188 C 69.179688 150.980469 70.90625 150.402344 72.65625 149.890625 C 74.402344 149.375 76.167969 148.925781 77.949219 148.535156 C 79.730469 148.148438 81.523438 147.824219 83.328125 147.566406 C 85.132812 147.304688 86.941406 147.109375 88.761719 146.980469 C 90.578125 146.847656 92.398438 146.78125 94.222656 146.78125 C 96.042969 146.78125 97.867188 146.84375 99.683594 146.976562 C 101.5 147.105469 103.3125 147.296875 105.117188 147.558594 C 106.921875 147.816406 108.714844 148.140625 110.496094 148.527344 C 112.277344 148.914062 114.042969 149.363281 115.789062 149.875 C 117.539062 150.386719 119.269531 150.964844 120.976562 151.597656 C 122.683594 152.234375 124.367188 152.933594 126.027344 153.6875 C 127.683594 154.445312 129.3125 155.261719 130.914062 156.132812 C 132.511719 157.007812 134.082031 157.933594 135.613281 158.921875 C 137.148438 159.90625 138.644531 160.945312 140.105469 162.035156 C 141.5625 163.128906 142.984375 164.269531 144.359375 165.460938 C 145.738281 166.65625 147.070312 167.898438 148.363281 169.183594 L 152.507812 173.332031 Z M 152.488281 201.644531 L 148.339844 205.792969 C 147.050781 207.082031 145.71875 208.324219 144.339844 209.515625 C 142.960938 210.707031 141.542969 211.851562 140.082031 212.941406 C 138.625 214.035156 137.128906 215.074219 135.59375 216.058594 C 134.058594 217.042969 132.492188 217.972656 130.894531 218.84375 C 129.292969 219.71875 127.664062 220.53125 126.003906 221.289062 C 124.347656 222.046875 122.664062 222.742188 120.957031 223.378906 C 119.246094 224.015625 117.519531 224.589844 115.769531 225.101562 C 114.019531 225.617188 112.253906 226.066406 110.472656 226.453125 C 108.691406 226.839844 106.902344 227.164062 105.097656 227.421875 C 103.292969 227.679688 101.480469 227.875 99.664062 228.003906 C 97.84375 228.132812 96.023438 228.199219 94.203125 228.195312 C 92.378906 228.195312 90.558594 228.128906 88.738281 228 C 86.921875 227.871094 85.109375 227.675781 83.308594 227.414062 C 81.503906 227.152344 79.710938 226.828125 77.929688 226.441406 C 76.148438 226.054688 74.382812 225.601562 72.632812 225.089844 C 70.886719 224.574219 69.15625 224 67.449219 223.359375 C 72.097656 219.847656 77 216.730469 82.152344 214.011719 C 87.308594 211.292969 92.648438 209.011719 98.171875 207.160156 C 103.695312 205.308594 109.335938 203.914062 115.085938 202.980469 C 120.835938 202.042969 126.625 201.578125 132.453125 201.582031 Z M 242.527344 201.644531 C 248.351562 201.640625 254.140625 202.105469 259.894531 203.042969 C 265.644531 203.976562 271.28125 205.371094 276.808594 207.222656 C 282.332031 209.074219 287.671875 211.355469 292.824219 214.074219 C 297.980469 216.792969 302.882812 219.910156 307.527344 223.421875 C 305.820312 224.0625 304.09375 224.636719 302.34375 225.152344 C 300.597656 225.664062 298.832031 226.117188 297.050781 226.503906 C 295.269531 226.890625 293.476562 227.214844 291.671875 227.476562 C 289.867188 227.734375 288.058594 227.929688 286.238281 228.0625 C 284.421875 228.191406 282.601562 228.257812 280.777344 228.257812 C 278.957031 228.257812 277.132812 228.195312 275.316406 228.066406 C 273.5 227.9375 271.6875 227.742188 269.882812 227.484375 C 268.078125 227.222656 266.285156 226.902344 264.503906 226.515625 C 262.722656 226.128906 260.957031 225.679688 259.210938 225.164062 C 257.460938 224.652344 255.730469 224.078125 254.023438 223.441406 C 252.316406 222.804688 250.632812 222.109375 248.972656 221.351562 C 247.316406 220.59375 245.6875 219.78125 244.085938 218.90625 C 242.488281 218.035156 240.917969 217.105469 239.386719 216.121094 C 237.851562 215.136719 236.355469 214.097656 234.894531 213.003906 C 233.4375 211.914062 232.015625 210.769531 230.640625 209.578125 C 229.261719 208.386719 227.929688 207.144531 226.636719 205.855469 L 222.492188 201.707031 Z M 310.433594 25.035156 L 350.671875 25.035156 L 350.671875 65.3125 C 350.667969 68.773438 350.503906 72.226562 350.167969 75.667969 C 349.835938 79.113281 349.335938 82.53125 348.675781 85.929688 C 348.011719 89.324219 347.1875 92.679688 346.199219 95.996094 C 345.214844 99.3125 344.070312 102.574219 342.769531 105.78125 C 341.46875 108.988281 340.015625 112.121094 338.414062 115.1875 C 336.8125 118.253906 335.066406 121.238281 333.175781 124.136719 C 331.285156 127.03125 329.257812 129.832031 327.097656 132.535156 C 324.9375 135.238281 322.652344 137.832031 320.242188 140.3125 C 318.328125 139.402344 316.386719 138.558594 314.414062 137.78125 C 312.441406 137.003906 310.441406 136.296875 308.421875 135.65625 C 306.398438 135.019531 304.359375 134.449219 302.296875 133.953125 C 300.234375 133.457031 298.160156 133.03125 296.070312 132.675781 C 293.976562 132.324219 291.878906 132.042969 289.765625 131.835938 C 287.65625 131.625 285.542969 131.492188 283.421875 131.429688 C 281.304688 131.367188 279.183594 131.378906 277.066406 131.464844 C 274.949219 131.550781 272.835938 131.710938 270.726562 131.941406 C 268.621094 132.171875 266.523438 132.476562 264.4375 132.855469 C 262.347656 133.230469 260.277344 133.679688 258.222656 134.199219 C 256.167969 134.722656 254.132812 135.3125 252.117188 135.972656 C 250.101562 136.632812 248.113281 137.363281 246.148438 138.164062 C 244.1875 138.964844 242.253906 139.828125 240.347656 140.761719 C 238.445312 141.695312 236.574219 142.695312 234.742188 143.757812 C 232.90625 144.820312 231.109375 145.945312 229.351562 147.132812 C 227.597656 148.320312 225.882812 149.566406 224.210938 150.871094 C 225.503906 149.214844 226.738281 147.515625 227.914062 145.777344 C 229.09375 144.035156 230.207031 142.257812 231.261719 140.441406 C 232.316406 138.621094 233.308594 136.773438 234.234375 134.886719 C 235.164062 133 236.027344 131.085938 236.824219 129.144531 C 237.621094 127.199219 238.347656 125.230469 239.011719 123.238281 C 239.671875 121.242188 240.265625 119.226562 240.789062 117.195312 C 241.3125 115.160156 241.765625 113.109375 242.148438 111.042969 C 242.53125 108.976562 242.84375 106.902344 243.085938 104.816406 C 243.328125 102.726562 243.496094 100.632812 243.59375 98.535156 C 243.691406 96.4375 243.714844 94.339844 243.671875 92.238281 C 243.625 90.136719 243.503906 88.039062 243.316406 85.949219 C 243.125 83.855469 242.863281 81.773438 242.53125 79.699219 C 242.199219 77.625 241.796875 75.5625 241.324219 73.515625 C 240.847656 71.46875 240.304688 69.441406 239.691406 67.433594 C 239.078125 65.421875 238.398438 63.4375 237.648438 61.472656 C 236.902344 59.511719 236.085938 57.574219 235.203125 55.667969 C 237.691406 53.246094 240.289062 50.945312 242.996094 48.773438 C 245.703125 46.601562 248.511719 44.566406 251.417969 42.664062 C 254.320312 40.761719 257.3125 39.007812 260.386719 37.394531 C 263.464844 35.785156 266.609375 34.324219 269.824219 33.015625 C 273.042969 31.710938 276.3125 30.5625 279.640625 29.570312 C 282.96875 28.578125 286.335938 27.753906 289.746094 27.085938 C 293.152344 26.421875 296.585938 25.925781 300.039062 25.589844 C 303.496094 25.257812 306.960938 25.09375 310.433594 25.097656 Z M 187.5 21.945312 L 205.835938 40.320312 C 209.765625 44.25 213.222656 48.554688 216.207031 53.242188 C 212.199219 57.949219 208.570312 62.929688 205.3125 68.183594 C 202.054688 73.4375 199.210938 78.90625 196.777344 84.585938 C 194.34375 90.269531 192.351562 96.101562 190.796875 102.082031 C 189.242188 108.066406 188.140625 114.128906 187.5 120.277344 C 186.859375 114.125 185.757812 108.058594 184.203125 102.070312 C 182.648438 96.085938 180.652344 90.25 178.21875 84.5625 C 175.78125 78.878906 172.9375 73.40625 169.675781 68.148438 C 166.417969 62.894531 162.78125 57.910156 158.773438 53.199219 C 161.757812 48.515625 165.214844 44.207031 169.144531 40.277344 Z M 24.328125 65.3125 L 24.328125 25.097656 L 64.566406 25.097656 C 68.039062 25.09375 71.503906 25.257812 74.960938 25.589844 C 78.414062 25.925781 81.847656 26.421875 85.253906 27.085938 C 88.664062 27.753906 92.03125 28.578125 95.359375 29.570312 C 98.6875 30.5625 101.957031 31.710938 105.175781 33.015625 C 108.390625 34.324219 111.535156 35.785156 114.613281 37.394531 C 117.6875 39.007812 120.679688 40.761719 123.582031 42.664062 C 126.488281 44.566406 129.296875 46.601562 132.003906 48.773438 C 134.710938 50.945312 137.308594 53.246094 139.796875 55.667969 C 138.914062 57.574219 138.097656 59.511719 137.351562 61.472656 C 136.601562 63.4375 135.921875 65.421875 135.308594 67.433594 C 134.695312 69.441406 134.152344 71.46875 133.675781 73.515625 C 133.203125 75.5625 132.800781 77.625 132.46875 79.699219 C 132.136719 81.773438 131.875 83.855469 131.683594 85.949219 C 131.492188 88.039062 131.375 90.136719 131.328125 92.238281 C 131.285156 94.339844 131.308594 96.4375 131.40625 98.535156 C 131.503906 100.632812 131.671875 102.726562 131.914062 104.816406 C 132.15625 106.902344 132.46875 108.976562 132.851562 111.042969 C 133.234375 113.109375 133.6875 115.160156 134.210938 117.195312 C 134.734375 119.226562 135.328125 121.242188 135.988281 123.238281 C 136.652344 125.230469 137.378906 127.199219 138.175781 129.144531 C 138.972656 131.085938 139.835938 133 140.765625 134.886719 C 141.691406 136.773438 142.683594 138.621094 143.738281 140.441406 C 144.792969 142.257812 145.90625 144.035156 147.085938 145.777344 C 148.261719 147.515625 149.496094 149.214844 150.789062 150.871094 C 149.117188 149.566406 147.402344 148.320312 145.648438 147.132812 C 143.890625 145.945312 142.09375 144.820312 140.257812 143.757812 C 138.425781 142.695312 136.554688 141.695312 134.652344 140.761719 C 132.746094 139.828125 130.8125 138.964844 128.851562 138.164062 C 126.886719 137.363281 124.898438 136.632812 122.882812 135.972656 C 120.867188 135.3125 118.832031 134.722656 116.777344 134.199219 C 114.722656 133.679688 112.652344 133.230469 110.5625 132.855469 C 108.476562 132.476562 106.378906 132.171875 104.273438 131.941406 C 102.164062 131.710938 100.050781 131.550781 97.933594 131.464844 C 95.816406 131.378906 93.695312 131.367188 91.578125 131.429688 C 89.457031 131.492188 87.34375 131.625 85.234375 131.835938 C 83.121094 132.042969 81.023438 132.324219 78.929688 132.675781 C 76.839844 133.03125 74.765625 133.457031 72.703125 133.953125 C 70.640625 134.449219 68.601562 135.019531 66.578125 135.65625 C 64.558594 136.296875 62.558594 137.003906 60.585938 137.78125 C 58.613281 138.558594 56.671875 139.402344 54.757812 140.3125 C 52.347656 137.832031 50.0625 135.238281 47.902344 132.535156 C 45.742188 129.832031 43.714844 127.03125 41.824219 124.136719 C 39.933594 121.238281 38.1875 118.253906 36.585938 115.1875 C 34.984375 112.121094 33.53125 108.988281 32.230469 105.78125 C 30.929688 102.574219 29.785156 99.3125 28.800781 95.996094 C 27.8125 92.679688 26.988281 89.324219 26.324219 85.929688 C 25.664062 82.53125 25.164062 79.113281 24.832031 75.667969 C 24.496094 72.226562 24.332031 68.773438 24.328125 65.3125 Z M 21.859375 187.6875 L 40.238281 169.246094 C 43.933594 165.546875 47.964844 162.253906 52.328125 159.375 C 56.699219 163.113281 61.3125 166.53125 66.160156 169.621094 C 71.011719 172.714844 76.054688 175.453125 81.289062 177.839844 C 86.523438 180.222656 91.898438 182.234375 97.414062 183.863281 C 102.929688 185.496094 108.53125 186.734375 114.222656 187.582031 C 108.527344 188.425781 102.921875 189.664062 97.402344 191.296875 C 91.882812 192.925781 86.503906 194.933594 81.265625 197.320312 C 76.027344 199.707031 70.984375 202.445312 66.128906 205.539062 C 61.277344 208.632812 56.664062 212.050781 52.289062 215.789062 C 47.9375 212.910156 43.921875 209.617188 40.238281 205.917969 Z M 64.566406 350.171875 L 24.328125 350.171875 L 24.328125 309.957031 C 24.328125 306.492188 24.492188 303.035156 24.820312 299.585938 C 25.152344 296.136719 25.648438 292.714844 26.3125 289.3125 C 26.972656 285.914062 27.796875 282.550781 28.78125 279.230469 C 29.765625 275.910156 30.910156 272.644531 32.210938 269.433594 C 33.511719 266.222656 34.964844 263.082031 36.566406 260.011719 C 38.171875 256.941406 39.917969 253.953125 41.8125 251.050781 C 43.703125 248.148438 45.730469 245.347656 47.894531 242.640625 C 50.054688 239.933594 52.34375 237.335938 54.757812 234.851562 C 56.671875 235.761719 58.613281 236.609375 60.585938 237.386719 C 62.558594 238.160156 64.558594 238.871094 66.578125 239.507812 C 68.601562 240.148438 70.640625 240.714844 72.703125 241.210938 C 74.765625 241.710938 76.839844 242.136719 78.929688 242.488281 C 81.023438 242.84375 83.121094 243.121094 85.234375 243.332031 C 87.34375 243.539062 89.457031 243.671875 91.578125 243.734375 C 93.695312 243.796875 95.816406 243.785156 97.933594 243.699219 C 100.050781 243.613281 102.164062 243.457031 104.273438 243.222656 C 106.378906 242.992188 108.476562 242.6875 110.5625 242.3125 C 112.652344 241.933594 114.722656 241.484375 116.777344 240.964844 C 118.832031 240.445312 120.867188 239.851562 122.882812 239.191406 C 124.898438 238.53125 126.886719 237.800781 128.851562 237 C 130.8125 236.203125 132.746094 235.335938 134.652344 234.402344 C 136.554688 233.46875 138.425781 232.472656 140.257812 231.410156 C 142.09375 230.347656 143.890625 229.222656 145.648438 228.035156 C 147.402344 226.847656 149.117188 225.601562 150.789062 224.292969 C 149.496094 225.949219 148.261719 227.648438 147.085938 229.390625 C 145.90625 231.128906 144.792969 232.910156 143.738281 234.726562 C 142.683594 236.542969 141.691406 238.394531 140.765625 240.277344 C 139.835938 242.164062 138.972656 244.078125 138.175781 246.023438 C 137.378906 247.964844 136.652344 249.933594 135.988281 251.929688 C 135.328125 253.921875 134.734375 255.9375 134.210938 257.972656 C 133.6875 260.007812 133.234375 262.054688 132.851562 264.121094 C 132.46875 266.1875 132.15625 268.265625 131.914062 270.351562 C 131.671875 272.4375 131.503906 274.53125 131.40625 276.628906 C 131.308594 278.726562 131.285156 280.828125 131.328125 282.925781 C 131.375 285.027344 131.492188 287.125 131.683594 289.214844 C 131.875 291.308594 132.136719 293.390625 132.46875 295.464844 C 132.800781 297.542969 133.203125 299.601562 133.675781 301.648438 C 134.152344 303.695312 134.695312 305.722656 135.308594 307.734375 C 135.921875 309.742188 136.601562 311.730469 137.351562 313.691406 C 138.097656 315.65625 138.914062 317.589844 139.796875 319.496094 C 137.308594 321.921875 134.710938 324.21875 132.003906 326.390625 C 129.296875 328.5625 126.488281 330.601562 123.582031 332.5 C 120.679688 334.402344 117.6875 336.160156 114.613281 337.769531 C 111.535156 339.382812 108.390625 340.839844 105.175781 342.148438 C 101.957031 343.457031 98.6875 344.605469 95.359375 345.59375 C 92.03125 346.585938 88.664062 347.414062 85.253906 348.078125 C 81.847656 348.742188 78.414062 349.242188 74.960938 349.574219 C 71.503906 349.90625 68.039062 350.070312 64.566406 350.070312 Z M 187.5 353.222656 L 169.164062 334.84375 C 165.234375 330.917969 161.777344 326.609375 158.792969 321.921875 C 162.800781 317.214844 166.429688 312.234375 169.6875 306.980469 C 172.945312 301.726562 175.789062 296.261719 178.222656 290.578125 C 180.65625 284.894531 182.648438 279.0625 184.203125 273.082031 C 185.757812 267.101562 186.859375 261.035156 187.5 254.886719 C 188.140625 261.039062 189.242188 267.109375 190.796875 273.09375 C 192.351562 279.082031 194.347656 284.917969 196.78125 290.601562 C 199.21875 296.289062 202.0625 301.757812 205.324219 307.015625 C 208.582031 312.273438 212.21875 317.253906 216.226562 321.964844 C 213.242188 326.652344 209.785156 330.957031 205.855469 334.886719 Z M 350.671875 309.957031 L 350.671875 350.171875 L 310.433594 350.171875 C 306.960938 350.171875 303.492188 350.003906 300.035156 349.667969 C 296.578125 349.332031 293.144531 348.828125 289.738281 348.160156 C 286.328125 347.488281 282.960938 346.660156 279.632812 345.664062 C 276.304688 344.667969 273.03125 343.515625 269.8125 342.203125 C 266.597656 340.890625 263.453125 339.429688 260.375 337.8125 C 257.300781 336.195312 254.3125 334.433594 251.40625 332.527344 C 248.503906 330.625 245.699219 328.582031 242.992188 326.40625 C 240.285156 324.226562 237.6875 321.925781 235.203125 319.496094 C 236.085938 317.589844 236.902344 315.65625 237.648438 313.691406 C 238.398438 311.730469 239.078125 309.742188 239.691406 307.734375 C 240.304688 305.722656 240.847656 303.695312 241.324219 301.648438 C 241.796875 299.601562 242.199219 297.542969 242.53125 295.464844 C 242.863281 293.390625 243.125 291.308594 243.316406 289.214844 C 243.507812 287.125 243.625 285.027344 243.671875 282.925781 C 243.714844 280.828125 243.691406 278.726562 243.59375 276.628906 C 243.496094 274.53125 243.328125 272.4375 243.085938 270.351562 C 242.84375 268.265625 242.53125 266.1875 242.148438 264.121094 C 241.765625 262.054688 241.3125 260.007812 240.789062 257.972656 C 240.265625 255.9375 239.671875 253.921875 239.011719 251.929688 C 238.347656 249.933594 237.621094 247.964844 236.824219 246.023438 C 236.027344 244.078125 235.164062 242.164062 234.234375 240.277344 C 233.308594 238.394531 232.316406 236.542969 231.261719 234.726562 C 230.207031 232.910156 229.09375 231.128906 227.914062 229.390625 C 226.738281 227.648438 225.503906 225.949219 224.210938 224.292969 C 225.882812 225.601562 227.597656 226.847656 229.351562 228.035156 C 231.109375 229.222656 232.90625 230.347656 234.742188 231.410156 C 236.574219 232.472656 238.445312 233.46875 240.347656 234.402344 C 242.253906 235.335938 244.1875 236.203125 246.148438 237 C 248.113281 237.800781 250.101562 238.53125 252.117188 239.191406 C 254.132812 239.851562 256.167969 240.445312 258.222656 240.964844 C 260.277344 241.484375 262.347656 241.933594 264.4375 242.3125 C 266.523438 242.6875 268.621094 242.992188 270.726562 243.222656 C 272.835938 243.457031 274.949219 243.613281 277.066406 243.699219 C 279.183594 243.785156 281.304688 243.796875 283.421875 243.734375 C 285.542969 243.671875 287.65625 243.539062 289.765625 243.332031 C 291.878906 243.121094 293.976562 242.84375 296.070312 242.488281 C 298.160156 242.136719 300.234375 241.710938 302.296875 241.210938 C 304.359375 240.714844 306.398438 240.148438 308.421875 239.507812 C 310.441406 238.871094 312.441406 238.160156 314.414062 237.386719 C 316.386719 236.609375 318.328125 235.761719 320.242188 234.851562 C 322.65625 237.335938 324.945312 239.933594 327.105469 242.640625 C 329.269531 245.347656 331.296875 248.148438 333.1875 251.050781 C 335.082031 253.953125 336.828125 256.941406 338.433594 260.011719 C 340.035156 263.082031 341.488281 266.222656 342.789062 269.433594 C 344.089844 272.644531 345.234375 275.910156 346.21875 279.230469 C 347.203125 282.550781 348.027344 285.914062 348.691406 289.3125 C 349.351562 292.714844 349.847656 296.136719 350.179688 299.585938 C 350.507812 303.035156 350.671875 306.492188 350.671875 309.957031 Z M 350.671875 309.957031 " fill-opacity="1" fill-rule="nonzero"/></g></svg>