<svg width="93" height="27" viewBox="0 0 93 27" fill="none" xmlns="http://www.w3.org/2000/svg">
<path d="M17.0332 7.21484C16.8691 7.42448 16.6686 7.62956 16.4316 7.83008C16.2311 8.00326 15.9805 8.18555 15.6797 8.37695C15.388 8.56836 15.0462 8.74154 14.6543 8.89648C14.7819 8.73242 14.791 8.55924 14.6816 8.37695C14.5814 8.18555 14.3535 8.01237 13.998 7.85742C13.6426 7.70247 13.1595 7.57487 12.5488 7.47461C11.9473 7.37435 11.209 7.32422 10.334 7.32422C9.82357 7.32422 9.27214 7.37891 8.67969 7.48828C8.09635 7.58854 7.51758 7.76628 6.94336 8.02148C6.36914 8.27669 5.81315 8.61849 5.27539 9.04688C4.74674 9.46615 4.27734 9.99479 3.86719 10.6328C3.45703 11.2617 3.12891 12.0137 2.88281 12.8887C2.64583 13.7546 2.52734 14.7572 2.52734 15.8965C2.52734 17.0358 2.66406 18.0384 2.9375 18.9043C3.22005 19.7702 3.58919 20.5176 4.04492 21.1465C4.50977 21.7663 5.03841 22.2858 5.63086 22.7051C6.22331 23.1152 6.82943 23.4479 7.44922 23.7031C8.06901 23.9492 8.67513 24.1224 9.26758 24.2227C9.86914 24.3229 10.4115 24.373 10.8945 24.373C11.4505 24.3639 12.0293 24.3229 12.6309 24.25C13.1504 24.1862 13.7201 24.0951 14.3398 23.9766C14.9688 23.849 15.584 23.6667 16.1855 23.4297C15.3014 24.1406 14.4811 24.6829 13.7246 25.0566C12.9681 25.4303 12.3027 25.7083 11.7285 25.8906C11.0632 26.1003 10.4525 26.2188 9.89648 26.2461C8.54753 26.2461 7.27604 26.0501 6.08203 25.6582C4.88802 25.2572 3.83984 24.6829 2.9375 23.9355C2.04427 23.179 1.33789 22.2539 0.818359 21.1602C0.298828 20.0664 0.0390625 18.8223 0.0390625 17.4277C0.0390625 16.5618 0.121094 15.7598 0.285156 15.0215C0.449219 14.2741 0.663411 13.5905 0.927734 12.9707C1.20117 12.3509 1.50651 11.7949 1.84375 11.3027C2.18099 10.8014 2.52279 10.3639 2.86914 9.99023C3.22461 9.60742 3.56641 9.28841 3.89453 9.0332C4.23177 8.77799 4.52344 8.58203 4.76953 8.44531C5.00651 8.30859 5.30729 8.15365 5.67188 7.98047C6.04557 7.80729 6.45117 7.63411 6.88867 7.46094C7.33529 7.27865 7.80469 7.10091 8.29688 6.92773C8.78906 6.75456 9.29036 6.59961 9.80078 6.46289C10.3112 6.32617 10.8079 6.2168 11.291 6.13477C11.7832 6.05273 12.248 6.01172 12.6855 6.01172C13.6608 6.01172 14.4492 6.05729 15.0508 6.14844C15.6523 6.23958 16.1081 6.35352 16.418 6.49023C16.737 6.61784 16.9329 6.75 17.0059 6.88672C17.0879 7.02344 17.097 7.13281 17.0332 7.21484ZM21.8867 2.22461C21.9049 2.39779 21.9141 2.62565 21.9141 2.9082C21.9141 3.19076 21.9141 3.52344 21.9141 3.90625C21.9141 6.02083 21.8639 8.08984 21.7637 10.1133C21.6725 12.1276 21.554 14.1374 21.4082 16.1426C21.7454 15.6139 22.1191 15.0762 22.5293 14.5293C22.9486 13.9824 23.3906 13.4902 23.8555 13.0527C24.3203 12.6061 24.8034 12.2461 25.3047 11.9727C25.806 11.6901 26.3164 11.5488 26.8359 11.5488C27.2643 11.5488 27.6198 11.6582 27.9023 11.877C28.1849 12.0957 28.4082 12.3691 28.5723 12.6973C28.7363 13.0254 28.8503 13.3809 28.9141 13.7637C28.987 14.1465 29.0234 14.502 29.0234 14.8301C29.0234 15.5228 28.9961 16.2109 28.9414 16.8945C28.8867 17.569 28.8275 18.2389 28.7637 18.9043C28.709 19.5697 28.6543 20.235 28.5996 20.9004C28.5449 21.5566 28.5176 22.2129 28.5176 22.8691C28.5176 23.0514 28.5267 23.2337 28.5449 23.416C28.5632 23.5983 28.6042 23.7669 28.668 23.9219C28.7318 24.0677 28.8184 24.1908 28.9277 24.291C29.0462 24.3822 29.2012 24.4277 29.3926 24.4277C29.6478 24.4277 29.9076 24.3229 30.1719 24.1133C30.4453 23.8945 30.696 23.6439 30.9238 23.3613C31.1608 23.0697 31.3704 22.7826 31.5527 22.5C31.7441 22.2083 31.89 21.985 31.9902 21.8301L31.6895 23.0879C31.2884 23.4798 30.9557 23.7988 30.6914 24.0449C30.4362 24.2819 30.2311 24.4733 30.0762 24.6191C29.8939 24.7832 29.748 24.9062 29.6387 24.9883C29.5293 25.0794 29.3926 25.2025 29.2285 25.3574C29.0645 25.5124 28.8822 25.6628 28.6816 25.8086C28.4902 25.9544 28.2852 26.0775 28.0664 26.1777C27.8568 26.2871 27.6426 26.3418 27.4238 26.3418C27.2415 26.3418 27.0911 26.3145 26.9727 26.2598C26.8542 26.2051 26.7585 26.1094 26.6855 25.9727C26.6126 25.8359 26.5579 25.6582 26.5215 25.4395C26.4941 25.2116 26.4805 24.9245 26.4805 24.5781C26.4805 23.7214 26.5033 22.8874 26.5488 22.0762C26.6035 21.2559 26.6582 20.4492 26.7129 19.6562C26.7676 18.8633 26.8132 18.0794 26.8496 17.3047C26.8861 16.5299 26.8906 15.7598 26.8633 14.9941C26.8451 14.7754 26.7904 14.5703 26.6992 14.3789C26.6081 14.1784 26.4805 14.0052 26.3164 13.8594C26.1615 13.7135 25.9746 13.6042 25.7559 13.5312C25.5371 13.4492 25.3001 13.4219 25.0449 13.4492C24.7897 13.4766 24.5391 13.5495 24.293 13.668C24.056 13.7865 23.819 13.9642 23.582 14.2012C23.3542 14.4382 23.1217 14.7435 22.8848 15.1172C22.6569 15.4909 22.4245 15.9557 22.1875 16.5117C22.0872 16.7578 21.9824 17.0312 21.873 17.332C21.7728 17.5964 21.6634 17.9062 21.5449 18.2617C21.4264 18.6081 21.3079 18.9954 21.1895 19.4238L20.8477 24.9336L18.6602 26.6426C18.806 24.8835 18.9473 23.1654 19.084 21.4883C19.2298 19.8021 19.3574 18.1478 19.4668 16.5254C19.5762 14.8939 19.6628 13.2852 19.7266 11.6992C19.7995 10.1042 19.8359 8.51367 19.8359 6.92773C19.8359 6.36263 19.8223 5.8431 19.7949 5.36914C19.7767 4.89518 19.7448 4.48047 19.6992 4.125C19.6628 3.76042 19.6126 3.45964 19.5488 3.22266C19.485 2.98568 19.4076 2.82161 19.3164 2.73047C19.1797 2.63932 19.0202 2.59375 18.8379 2.59375C18.6829 2.59375 18.487 2.63932 18.25 2.73047C18.0221 2.8125 17.7487 2.99023 17.4297 3.26367C17.6211 3.09961 17.8581 2.88086 18.1406 2.60742C18.4232 2.33398 18.7194 2.06966 19.0293 1.81445C19.3392 1.55013 19.6491 1.32682 19.959 1.14453C20.2689 0.953125 20.5469 0.857422 20.793 0.857422C21.0573 0.857422 21.2943 0.96224 21.5039 1.17188C21.7135 1.38151 21.8411 1.73242 21.8867 2.22461ZM45.5391 22.4453C45.457 22.5729 45.3431 22.7279 45.1973 22.9102C45.0514 23.0833 44.9056 23.2565 44.7598 23.4297C44.5957 23.6302 44.418 23.8353 44.2266 24.0449C43.9896 24.3366 43.7344 24.6191 43.4609 24.8926C43.1875 25.166 42.9141 25.4121 42.6406 25.6309C42.3763 25.8405 42.1165 26.0091 41.8613 26.1367C41.6061 26.2643 41.3783 26.3236 41.1777 26.3145C40.7949 26.2962 40.5306 26.0638 40.3848 25.6172C40.2389 25.1615 40.166 24.5052 40.166 23.6484C40.166 23.1927 40.1797 22.7005 40.207 22.1719C40.2344 21.6432 40.2754 21.0508 40.3301 20.3945C40.1296 20.7135 39.9382 21.0052 39.7559 21.2695C39.5736 21.5339 39.4095 21.7663 39.2637 21.9668C39.0996 22.2038 38.9355 22.418 38.7715 22.6094C38.2884 23.2018 37.819 23.7259 37.3633 24.1816C36.9167 24.6374 36.502 25.0202 36.1191 25.3301C35.7454 25.64 35.4128 25.877 35.1211 26.041C34.8385 26.2051 34.6152 26.2962 34.4512 26.3145C34.2871 26.3327 34.0866 26.278 33.8496 26.1504C33.6217 26.0228 33.403 25.7767 33.1934 25.4121C32.9837 25.0475 32.8014 24.5371 32.6465 23.8809C32.5007 23.2246 32.4323 22.3724 32.4414 21.3242C32.4505 20.276 32.5599 19.3555 32.7695 18.5625C32.9883 17.7604 33.2663 17.0632 33.6035 16.4707C33.9499 15.8691 34.3327 15.3542 34.752 14.9258C35.1712 14.4883 35.5859 14.11 35.9961 13.791C36.8438 13.1439 37.6549 12.6289 38.4297 12.2461C39.2135 11.8542 39.9792 11.6491 40.7266 11.6309C40.9727 11.6217 41.2142 11.6263 41.4512 11.6445C41.6608 11.6628 41.8841 11.6947 42.1211 11.7402C42.3672 11.7767 42.5996 11.8359 42.8184 11.918L43.2148 11.6035C43.1602 11.8587 43.1009 12.2051 43.0371 12.6426C42.9824 13.0801 42.9277 13.5723 42.873 14.1191C42.8184 14.666 42.7637 15.2493 42.709 15.8691C42.6543 16.4889 42.6042 17.1133 42.5586 17.7422C42.5221 18.362 42.4857 18.9681 42.4492 19.5605C42.4128 20.1439 42.3809 20.6771 42.3535 21.1602C42.3353 21.6432 42.3216 22.0534 42.3125 22.3906C42.3125 22.7279 42.3171 22.9603 42.3262 23.0879C42.3717 23.6074 42.4902 23.9629 42.6816 24.1543C42.8822 24.3457 43.1556 24.3275 43.502 24.0996C43.6387 23.9902 43.8073 23.8171 44.0078 23.5801C44.181 23.3796 44.3906 23.1061 44.6367 22.7598C44.8919 22.4043 45.1927 21.944 45.5391 21.3789V22.4453ZM40.8633 13.7363C39.9974 13.627 39.2865 13.5723 38.7305 13.5723C38.138 13.5723 37.623 13.668 37.1855 13.8594C36.748 14.0508 36.3743 14.3105 36.0645 14.6387C35.7546 14.9577 35.4993 15.3314 35.2988 15.7598C35.0983 16.179 34.9388 16.6257 34.8203 17.0996C34.7109 17.5736 34.6335 18.0566 34.5879 18.5488C34.5514 19.041 34.5332 19.5104 34.5332 19.957C34.5332 20.112 34.5423 20.3216 34.5605 20.5859C34.5788 20.8503 34.6107 21.1328 34.6562 21.4336C34.7109 21.7344 34.7747 22.0397 34.8477 22.3496C34.9297 22.6595 35.0299 22.9421 35.1484 23.1973C35.276 23.4434 35.4219 23.6484 35.5859 23.8125C35.75 23.9674 35.9414 24.0449 36.1602 24.0449C36.3971 24.0449 36.6842 23.9173 37.0215 23.6621C37.3678 23.3978 37.7826 22.9557 38.2656 22.3359C38.5482 21.9531 38.8307 21.4928 39.1133 20.9551C39.3503 20.4993 39.6009 19.9388 39.8652 19.2734C40.1387 18.6081 40.3802 17.8333 40.5898 16.9492L40.8633 13.7363ZM50.3105 18.4121C50.265 18.9316 50.224 19.515 50.1875 20.1621C50.151 20.7181 50.11 21.3789 50.0645 22.1445C50.0189 22.901 49.9688 23.7396 49.9141 24.6602L47.6172 26.6152C47.8177 24.7559 47.9909 22.9831 48.1367 21.2969C48.2917 19.6107 48.3691 17.9473 48.3691 16.3066C48.3691 15.4772 48.2552 14.8665 48.0273 14.4746C47.7995 14.0736 47.4941 13.873 47.1113 13.873C46.7103 13.873 46.2454 14.0781 45.7168 14.4883C45.8353 14.3789 45.9766 14.2422 46.1406 14.0781C46.3138 13.9049 46.4961 13.7227 46.6875 13.5312C46.888 13.3398 47.0931 13.1484 47.3027 12.957C47.5215 12.7656 47.7311 12.5924 47.9316 12.4375C48.1413 12.2826 48.3418 12.1595 48.5332 12.0684C48.7246 11.9681 48.8932 11.918 49.0391 11.918C49.3945 11.918 49.668 12.0182 49.8594 12.2188C50.0508 12.4193 50.1921 12.6654 50.2832 12.957C50.3743 13.2487 50.429 13.554 50.4473 13.873C50.4655 14.1921 50.4746 14.4655 50.4746 14.6934V15.3359C50.9577 14.5339 51.5273 13.8275 52.1836 13.2168C52.849 12.6061 53.6237 12.1732 54.5078 11.918C54.6992 11.8633 54.8861 11.8496 55.0684 11.877C55.2507 11.8952 55.4329 11.9316 55.6152 11.9863C55.7975 12.0319 55.9889 12.082 56.1895 12.1367C56.3991 12.1914 56.6224 12.2188 56.8594 12.2188C57.0417 12.2188 57.2331 12.196 57.4336 12.1504C57.6341 12.1048 57.862 12.0273 58.1172 11.918C57.8529 12.1823 57.5931 12.4421 57.3379 12.6973C57.0827 12.9525 56.8275 13.1849 56.5723 13.3945C56.3262 13.5951 56.0801 13.7682 55.834 13.9141C55.597 14.0508 55.3691 14.1328 55.1504 14.1602C54.9134 14.1875 54.6855 14.1738 54.4668 14.1191C54.2572 14.0553 54.0384 13.9915 53.8105 13.9277C53.5918 13.8548 53.3594 13.8047 53.1133 13.7773C52.8672 13.7409 52.6029 13.7637 52.3203 13.8457C52.1289 13.9095 51.9375 14.0872 51.7461 14.3789C51.5638 14.6615 51.3815 15.0169 51.1992 15.4453C51.026 15.8646 50.862 16.334 50.707 16.8535C50.5612 17.3639 50.429 17.8743 50.3105 18.3848V18.4121ZM70.791 21.5977L70.4766 23.0879C69.9844 23.5072 69.5742 23.8535 69.2461 24.127C68.9271 24.3913 68.6673 24.6055 68.4668 24.7695C68.2298 24.9609 68.043 25.1113 67.9062 25.2207C67.7513 25.3483 67.5872 25.4805 67.4141 25.6172C67.2409 25.7448 67.0586 25.8587 66.8672 25.959C66.6849 26.0592 66.498 26.1367 66.3066 26.1914C66.1243 26.2552 65.9466 26.2734 65.7734 26.2461C65.2357 26.1914 64.9668 25.1022 64.9668 22.9785C64.9668 22.0579 64.9941 20.9824 65.0488 19.752C64.7845 20.2168 64.5339 20.6406 64.2969 21.0234C64.069 21.3971 63.8639 21.7161 63.6816 21.9805C63.472 22.2904 63.276 22.5684 63.0938 22.8145C62.6836 23.334 62.2826 23.8034 61.8906 24.2227C61.4987 24.6328 61.1296 24.9883 60.7832 25.2891C60.4368 25.5898 60.1224 25.8268 59.8398 26C59.5664 26.1641 59.3431 26.2552 59.1699 26.2734C58.9967 26.2917 58.8053 26.2689 58.5957 26.2051C58.3861 26.1413 58.181 26 57.9805 25.7812C57.7891 25.5534 57.6159 25.2298 57.4609 24.8105C57.3151 24.3913 57.2148 23.8353 57.1602 23.1426C57.1419 23.0059 57.1328 22.8691 57.1328 22.7324C57.1328 22.5866 57.1328 22.4453 57.1328 22.3086C57.1328 21.6432 57.1829 20.9505 57.2832 20.2305C57.3926 19.5104 57.5339 18.8268 57.707 18.1797C57.8893 17.5234 58.099 16.931 58.3359 16.4023C58.582 15.8646 58.8418 15.4499 59.1152 15.1582C59.3158 14.9395 59.5664 14.707 59.8672 14.4609C60.168 14.2148 60.4915 13.9733 60.8379 13.7363C61.1934 13.4902 61.5579 13.2578 61.9316 13.0391C62.3053 12.8112 62.6608 12.6107 62.998 12.4375C63.3353 12.2643 63.6406 12.123 63.9141 12.0137C64.1875 11.9043 64.4062 11.8359 64.5703 11.8086H64.8438C64.9349 11.8086 65.0443 11.8086 65.1719 11.8086C65.2995 11.8086 65.4453 11.8177 65.6094 11.8359C65.6732 11.0156 65.7324 10.2181 65.7871 9.44336C65.8509 8.66862 65.901 7.93945 65.9375 7.25586C65.9831 6.56315 66.0195 5.92969 66.0469 5.35547C66.0742 4.78125 66.0879 4.28906 66.0879 3.87891C66.0879 3.51432 66.056 3.24089 65.9922 3.05859C65.9375 2.86719 65.8464 2.70312 65.7188 2.56641C65.6367 2.49349 65.5365 2.44792 65.418 2.42969C65.3177 2.41146 65.1901 2.42057 65.0352 2.45703C64.8802 2.49349 64.6979 2.57552 64.4883 2.70312C64.9531 2.38411 65.3451 2.11523 65.6641 1.89648C65.9831 1.67773 66.2474 1.50456 66.457 1.37695C66.694 1.22201 66.89 1.10352 67.0449 1.02148C67.2363 0.912109 67.4232 0.857422 67.6055 0.857422C67.7969 0.848307 67.9655 0.912109 68.1113 1.04883C68.2572 1.17643 68.3665 1.38151 68.4395 1.66406C68.5124 1.94661 68.5306 2.32031 68.4941 2.78516C68.4668 3.02214 68.4258 3.43685 68.3711 4.0293C68.3255 4.61263 68.2663 5.31445 68.1934 6.13477C68.1204 6.94596 68.043 7.83919 67.9609 8.81445C67.888 9.78971 67.8105 10.7878 67.7285 11.8086C67.6465 12.8294 67.5645 13.8411 67.4824 14.8438C67.4095 15.8372 67.3457 16.7624 67.291 17.6191C67.2363 18.4668 67.1908 19.2142 67.1543 19.8613C67.1178 20.5085 67.0996 20.987 67.0996 21.2969C67.0996 22.2357 67.1634 22.9648 67.291 23.4844C67.4186 24.0039 67.651 24.2637 67.9883 24.2637C68.2253 24.2637 68.526 24.1224 68.8906 23.8398C69.1549 23.6302 69.4056 23.4023 69.6426 23.1562C69.8522 22.9466 70.0618 22.7096 70.2715 22.4453C70.4811 22.1719 70.6543 21.8893 70.791 21.5977ZM65.4727 13.7637C64.9349 13.6634 64.4701 13.5996 64.0781 13.5723C63.6862 13.5358 63.3581 13.5176 63.0938 13.5176C62.5833 13.5176 62.1322 13.6452 61.7402 13.9004C61.3574 14.1465 61.0202 14.4701 60.7285 14.8711C60.4368 15.2721 60.1908 15.7279 59.9902 16.2383C59.7988 16.7487 59.6439 17.2637 59.5254 17.7832C59.4069 18.3027 59.3203 18.804 59.2656 19.2871C59.2201 19.7611 59.1973 20.1712 59.1973 20.5176C59.1973 20.6634 59.2018 20.8548 59.2109 21.0918C59.2292 21.3197 59.2565 21.5658 59.293 21.8301C59.3385 22.0853 59.3978 22.3451 59.4707 22.6094C59.5436 22.8737 59.6348 23.1152 59.7441 23.334C59.8535 23.5436 59.9857 23.7168 60.1406 23.8535C60.2956 23.9811 60.4779 24.0449 60.6875 24.0449C60.9245 24.0449 61.207 23.8945 61.5352 23.5938C61.8724 23.293 62.3053 22.7962 62.834 22.1035C63.0892 21.748 63.3535 21.3105 63.627 20.791C63.8639 20.3444 64.1237 19.7793 64.4062 19.0957C64.6888 18.4121 64.9714 17.5964 65.2539 16.6484L65.4727 13.7637ZM77.9277 21.748L77.627 22.8691C77.472 23.0241 77.2806 23.2201 77.0527 23.457C76.834 23.6849 76.5879 23.931 76.3145 24.1953C76.0501 24.4505 75.7721 24.7057 75.4805 24.9609C75.1888 25.2161 74.9017 25.444 74.6191 25.6445C74.3366 25.8451 74.0632 26 73.7988 26.1094C73.5436 26.2279 73.3158 26.2734 73.1152 26.2461C72.8053 26.2005 72.582 25.9772 72.4453 25.5762C72.3177 25.166 72.2539 24.5052 72.2539 23.5938C72.2539 23.4297 72.2585 23.1654 72.2676 22.8008C72.2858 22.4271 72.304 21.9941 72.3223 21.502C72.3496 21.0098 72.377 20.472 72.4043 19.8887C72.4408 19.2962 72.4772 18.7038 72.5137 18.1113C72.5501 17.5098 72.5866 16.9219 72.623 16.3477C72.6686 15.7643 72.7142 15.2311 72.7598 14.748C72.7871 14.429 72.7233 14.2012 72.5684 14.0645C72.4134 13.9186 72.222 13.8457 71.9941 13.8457C71.8027 13.8457 71.6022 13.8913 71.3926 13.9824C71.1829 14.0736 70.9915 14.1966 70.8184 14.3516C71.1829 13.9961 71.5065 13.6999 71.7891 13.4629C72.0716 13.2168 72.3132 13.0163 72.5137 12.8613C72.7507 12.6882 72.9512 12.5423 73.1152 12.4238C73.3431 12.2871 73.5618 12.2188 73.7715 12.2188C73.9902 12.2096 74.1816 12.2598 74.3457 12.3691C74.5189 12.4785 74.651 12.638 74.7422 12.8477C74.8424 13.0573 74.888 13.3079 74.8789 13.5996C74.8698 13.8001 74.847 14.1237 74.8105 14.5703C74.7832 15.0078 74.7467 15.5091 74.7012 16.0742C74.6647 16.6393 74.6191 17.2363 74.5645 17.8652C74.5189 18.4941 74.4733 19.1003 74.4277 19.6836C74.3913 20.2669 74.3548 20.7956 74.3184 21.2695C74.291 21.7435 74.2728 22.1081 74.2637 22.3633C74.2454 22.8828 74.3001 23.3021 74.4277 23.6211C74.5645 23.9401 74.7786 24.0996 75.0703 24.0996C75.2891 24.0996 75.5397 24.0039 75.8223 23.8125C76.1139 23.6211 76.401 23.3978 76.6836 23.1426C76.9661 22.8874 77.2168 22.6276 77.4355 22.3633C77.6634 22.099 77.8275 21.8939 77.9277 21.748ZM75.6035 1.58203C75.6217 2.02865 75.6081 2.42969 75.5625 2.78516C75.526 3.13151 75.4805 3.42773 75.4258 3.67383C75.362 3.96549 75.2845 4.2207 75.1934 4.43945C75.084 4.6582 74.9154 4.89518 74.6875 5.15039C74.4961 5.36914 74.2318 5.62435 73.8945 5.91602C73.5664 6.19857 73.138 6.49935 72.6094 6.81836C72.7826 6.47201 72.9193 6.10742 73.0195 5.72461C73.1198 5.33268 73.1973 4.97266 73.252 4.64453C73.3158 4.26172 73.3568 3.88346 73.375 3.50977L75.6035 1.58203ZM82.2344 12.5332C82.2982 12.6973 82.3392 12.9388 82.3574 13.2578C82.3757 13.5768 82.3848 13.9414 82.3848 14.3516C82.3848 14.6432 82.3802 14.9531 82.3711 15.2812C82.362 15.6094 82.3483 15.9421 82.3301 16.2793C82.5944 15.8965 82.8815 15.5046 83.1914 15.1035C83.5013 14.6934 83.8249 14.306 84.1621 13.9414C84.5085 13.5677 84.8685 13.2259 85.2422 12.916C85.6159 12.6061 85.9987 12.3555 86.3906 12.1641C86.7917 11.9635 87.1973 11.8359 87.6074 11.7812C88.0267 11.7174 88.4505 11.7539 88.8789 11.8906C89.1159 11.9635 89.3073 12.0729 89.4531 12.2188C89.6081 12.3646 89.7311 12.5469 89.8223 12.7656C89.9134 12.9753 89.9727 13.2168 90 13.4902C90.0365 13.7637 90.0547 14.0599 90.0547 14.3789C90.0547 15.0898 90.0273 15.7917 89.9727 16.4844C89.918 17.1771 89.8542 17.8652 89.7812 18.5488C89.7174 19.2233 89.6582 19.8978 89.6035 20.5723C89.5488 21.2467 89.5215 21.9167 89.5215 22.582C89.5215 23.0378 89.5579 23.3978 89.6309 23.6621C89.7129 23.9264 89.8542 24.0814 90.0547 24.127C90.2552 24.1178 90.4785 24.0312 90.7246 23.8672C90.9342 23.7396 91.1849 23.5299 91.4766 23.2383C91.7682 22.9466 92.0872 22.5319 92.4336 21.9941L92.3242 23.0332C92.0781 23.3066 91.791 23.6348 91.4629 24.0176C91.1439 24.4004 90.8066 24.765 90.4512 25.1113C90.1048 25.4486 89.7493 25.7311 89.3848 25.959C89.0293 26.1868 88.6921 26.2826 88.373 26.2461C88.0267 26.2005 87.7441 26.0046 87.5254 25.6582C87.3066 25.3027 87.1973 24.7467 87.1973 23.9902C87.1973 23.6165 87.2109 23.179 87.2383 22.6777C87.2656 22.1673 87.3021 21.6341 87.3477 21.0781C87.3932 20.5221 87.4388 19.957 87.4844 19.3828C87.5391 18.8086 87.5892 18.2617 87.6348 17.7422C87.6895 17.2227 87.735 16.7487 87.7715 16.3203C87.8171 15.8828 87.849 15.5273 87.8672 15.2539C87.8854 14.9805 87.8581 14.7344 87.7852 14.5156C87.7214 14.2878 87.6165 14.0918 87.4707 13.9277C87.334 13.7637 87.1699 13.6406 86.9785 13.5586C86.7871 13.4674 86.5775 13.4219 86.3496 13.4219C86.1035 13.4219 85.8438 13.4857 85.5703 13.6133C85.2969 13.7318 85.0189 13.9232 84.7363 14.1875C84.5996 14.3242 84.431 14.5156 84.2305 14.7617C84.0391 14.9987 83.8294 15.3132 83.6016 15.7051C83.3737 16.0879 83.1322 16.5482 82.877 17.0859C82.6309 17.6237 82.3893 18.2526 82.1523 18.9727C82.1341 19.1823 82.1204 19.3874 82.1113 19.5879C82.1022 19.7884 82.0977 19.9753 82.0977 20.1484C82.0794 20.5859 82.0521 21.0508 82.0156 21.543C81.9883 21.9622 81.9564 22.4362 81.9199 22.9648C81.8835 23.4935 81.8424 24.0312 81.7969 24.5781L79.6367 26.4785C79.737 24.2637 79.8236 22.4362 79.8965 20.9961C79.9785 19.5469 80.0423 18.403 80.0879 17.5645C80.1426 16.5801 80.1882 15.8281 80.2246 15.3086C80.252 14.6979 80.1699 14.265 79.9785 14.0098C79.7871 13.7546 79.5501 13.627 79.2676 13.627C79.0488 13.627 78.8118 13.6953 78.5566 13.832C78.3105 13.9688 78.0736 14.1419 77.8457 14.3516C78.0736 14.0964 78.3242 13.8229 78.5977 13.5312C78.8802 13.2396 79.1764 12.9707 79.4863 12.7246C79.7962 12.4785 80.1107 12.2734 80.4297 12.1094C80.7578 11.9453 81.0814 11.8633 81.4004 11.8633C81.6009 11.8633 81.7695 11.918 81.9062 12.0273C82.0521 12.1276 82.1615 12.2962 82.2344 12.5332Z" fill="white"/>
</svg>
