<svg width="38" height="38" viewBox="0 0 38 38" fill="none" xmlns="http://www.w3.org/2000/svg">
<rect width="38" height="38" rx="19" fill="#BAEDBD"/>
<path d="M26.8162 12.3623C26.9341 12.2476 27.0748 12.1565 27.23 12.0942C27.3853 12.032 27.552 12 27.7204 12C27.8889 12 28.0556 12.032 28.2108 12.0942C28.3661 12.1565 28.5068 12.2476 28.6247 12.3623C29.1187 12.8383 29.1256 13.6075 28.642 14.0918L18.4284 25.6056C18.3124 25.727 18.1717 25.8246 18.0148 25.8924C17.858 25.9601 17.6882 25.9967 17.516 25.9998C17.3438 26.0029 17.1728 25.9724 17.0134 25.9103C16.8539 25.8482 16.7095 25.7557 16.5888 25.6385L10.3739 19.6329C10.1343 19.3998 10 19.0864 10 18.7599C10 18.4334 10.1343 18.12 10.3739 17.8869C10.4918 17.7722 10.6325 17.6811 10.7878 17.6189C10.9431 17.5567 11.1098 17.5246 11.2782 17.5246C11.4466 17.5246 11.6133 17.5567 11.7686 17.6189C11.9239 17.6811 12.0646 17.7722 12.1824 17.8869L17.4542 22.9816L26.7816 12.3985L26.8162 12.3623Z" fill="#2C2C2C"/>
</svg>
